<?xml version="1.0" encoding="UTF-8" standalone="no"?>
<svg
   width="1920"
   height="400"
   viewBox="0 0 508 105.83333"
   version="1.1"
   id="svg294"
   sodipodi:docname="card3.svg"
   inkscape:version="1.1 (c68e22c387, 2021-05-23)"
   xmlns:inkscape="http://www.inkscape.org/namespaces/inkscape"
   xmlns:sodipodi="http://sodipodi.sourceforge.net/DTD/sodipodi-0.dtd"
   xmlns="http://www.w3.org/2000/svg"
   xmlns:svg="http://www.w3.org/2000/svg">
  <defs
     id="defs298" />
  <sodipodi:namedview
     id="namedview296"
     pagecolor="#ffffff"
     bordercolor="#666666"
     borderopacity="1.0"
     inkscape:pageshadow="2"
     inkscape:pageopacity="0.0"
     inkscape:pagecheckerboard="0"
     inkscape:document-units="mm"
     showgrid="false"
     units="px"
     inkscape:zoom="0.51091954"
     inkscape:cx="1251.6648"
     inkscape:cy="32.294713"
     inkscape:window-width="1680"
     inkscape:window-height="987"
     inkscape:window-x="-8"
     inkscape:window-y="-8"
     inkscape:window-maximized="1"
     inkscape:current-layer="svg294" />
  <path
     fill="#6d427f"
     d="M 0,-3.0918246 H 580 V 108.80357 H 0 Z"
     id="path220"
     style="stroke-width:1.05781" />
  <path
     d="m 35.07,23.175002 29.203,59.938 H 5.865 Z"
     fill="#d2a76d"
     id="path222" />
  <path
     d="m 35.07,30.921002 23.542,48.32 H 11.526 Z"
     fill="#6e4080"
     id="path224" />
  <path
     d="M 70.114,83.113002 40.91,23.175002 H 99.318 Z"
     fill="#d2a76d"
     id="path226" />
  <path
     d="m 70.114,75.367002 -23.543,-48.32 h 47.086 z"
     fill="#6e4080"
     id="path228" />
  <path
     d="m 105.159,23.175002 29.204,59.938 H 75.955 Z"
     fill="#d2a76d"
     id="path230" />
  <path
     d="m 105.159,30.921002 23.543,48.32 H 81.616 Z"
     fill="#6e4080"
     id="path232" />
  <path
     d="M 140.204,83.113002 111,23.175002 h 58.408 z"
     fill="#d2a76d"
     id="path234" />
  <path
     d="m 140.204,75.367002 -23.543,-48.32 h 47.086 z"
     fill="#6e4080"
     id="path236" />
  <path
     d="m 175.248,23.175002 29.204,59.938 h -58.408 z"
     fill="#d2a76d"
     id="path238" />
  <path
     d="m 175.248,30.921002 23.543,48.32 h -47.086 z"
     fill="#6e4080"
     id="path240" />
  <path
     d="m 210.293,83.113002 -29.203,-59.938 h 58.408 z"
     fill="#d2a76d"
     id="path242" />
  <path
     d="m 210.293,75.367002 -23.543,-48.32 h 47.086 z"
     fill="#6e4080"
     id="path244" />
  <path
     d="m 245.338,23.175002 29.204,59.938 h -58.408 z"
     fill="#d2a76d"
     id="path246" />
  <path
     d="m 245.338,30.921002 23.543,48.32 h -47.086 z"
     fill="#6e4080"
     id="path248" />
  <path
     d="m 280.383,83.113002 -29.204,-59.938 h 58.408 z"
     fill="#d2a76d"
     id="path250" />
  <path
     d="m 280.383,75.367002 -23.543,-48.32 h 47.086 z"
     fill="#6e4080"
     id="path252" />
  <path
     d="m 315.427,23.175002 29.204,59.938 h -58.408 z"
     fill="#d2a76d"
     id="path254" />
  <path
     d="m 315.427,30.921002 23.543,48.32 h -47.086 z"
     fill="#6e4080"
     id="path256" />
  <path
     d="m 350.472,83.113002 -29.204,-59.938 h 58.408 z"
     fill="#d2a76d"
     id="path258" />
  <path
     d="m 350.472,75.367002 -23.543,-48.32 h 47.086 z"
     fill="#6e4080"
     id="path260" />
  <path
     d="m 0.025,83.175002 -29.205,-59.938 h 58.408 z"
     fill="#d2a76d"
     id="path262" />
  <path
     d="m 0.025,75.429002 -23.543,-48.32 h 47.086 z"
     fill="#6e4080"
     id="path264" />
  <path
     d="m 386.393,23.175002 29.204,59.938 h -58.408 z"
     fill="#d2a76d"
     id="path266" />
  <path
     d="m 386.393,30.921002 23.543,48.32 H 362.85 Z"
     fill="#6e4080"
     id="path268" />
  <path
     d="m 421.438,83.113002 -29.204,-59.938 h 58.408 z"
     fill="#d2a76d"
     id="path270" />
  <path
     d="m 421.438,75.367002 -23.543,-48.32 h 47.086 z"
     fill="#6e4080"
     id="path272" />
  <path
     d="m 456.482,23.175002 29.204,59.938 h -58.408 z"
     fill="#d2a76d"
     id="path274" />
  <path
     d="m 456.482,30.921002 23.543,48.32 H 432.94 Z"
     fill="#6e4080"
     id="path276" />
  <path
     d="m 491.527,83.113002 -29.204,-59.938 h 58.408 z"
     fill="#d2a76d"
     id="path278" />
  <path
     d="m 491.527,75.367002 -23.543,-48.32 h 47.086 z"
     fill="#6e4080"
     id="path280" />
  <path
     d="m 526.572,23.175002 29.204,59.938 h -58.408 z"
     fill="#d2a76d"
     id="path282" />
  <path
     d="m 526.572,30.921002 23.543,48.32 h -47.086 z"
     fill="#6e4080"
     id="path284" />
  <path
     d="m 561.617,83.113002 -29.204,-59.938 h 58.408 z"
     fill="#d2a76d"
     id="path286" />
  <path
     d="m 561.617,75.367002 -23.543,-48.32 h 47.086 z"
     fill="#6e4080"
     id="path288" />
  <path
     d="m 596.204,23.175002 29.204,59.938 H 567 Z"
     fill="#d2a76d"
     id="path290" />
  <path
     d="m 596.204,30.921002 23.543,48.32 H 572.66 Z"
     fill="#6e4080"
     id="path292" />
</svg>
