<?xml version="1.0" encoding="UTF-8" standalone="no"?>
<svg
   viewBox="0 0 1920 400"
   version="1.1"
   id="svg578"
   sodipodi:docname="card2.svg"
   inkscape:version="1.1 (c68e22c387, 2021-05-23)"
   xmlns:inkscape="http://www.inkscape.org/namespaces/inkscape"
   xmlns:sodipodi="http://sodipodi.sourceforge.net/DTD/sodipodi-0.dtd"
   xmlns="http://www.w3.org/2000/svg"
   xmlns:svg="http://www.w3.org/2000/svg">
  <sodipodi:namedview
     id="namedview580"
     pagecolor="#ffffff"
     bordercolor="#666666"
     borderopacity="1.0"
     inkscape:pageshadow="2"
     inkscape:pageopacity="0.0"
     inkscape:pagecheckerboard="0"
     showgrid="false"
     borderlayer="true"
     inkscape:zoom="0.58333333"
     inkscape:cx="959.14286"
     inkscape:cy="611.14286"
     inkscape:window-width="1680"
     inkscape:window-height="987"
     inkscape:window-x="-8"
     inkscape:window-y="-8"
     inkscape:window-maximized="1"
     inkscape:current-layer="svg578" />
  <defs
     id="defs533">
    <clipPath
       id="clip-path">
      <path
         fill="none"
         d="M37.545 35.116h1802.91v240.51H37.545z"
         id="path528" />
    </clipPath>
    <style
       id="style531">.cls-5{fill:#eeeafe}.cls-7{fill:#d6d2e8}.cls-8{fill:#d5d1e7}.cls-9{fill:#d6d1e7}</style>
  </defs>
  <g
     id="Layer_1"
     data-name="Layer 1"
     transform="matrix(1.0363095,0,0,1.0363095,-35.714286,-24)">
    <path
       fill="#fd418d"
       d="M 0,59.632 V 1080 H 1920 V 0 H 0 Z"
       id="path535" />
    <g
       clip-path="url(#clip-path)"
       id="g541">
      <path
         d="m 1794.665,150.722 c -7.365,0.1 -14.734,0.083 -22.1,0.313 q -23.791,0.746 -47.576,1.707 c -14.97,0.61 -29.932,1.417 -44.9,2.033 -16.087,0.663 -32.182,1.152 -48.269,1.813 -17.2,0.706 -34.4,1.558 -51.606,2.285 q -44.238,1.871 -88.479,3.664 c -11.842,0.49 -23.683,1 -35.526,1.472 -27.037,1.073 -54.076,2.084 -81.111,3.2 -26.142,1.079 -52.278,2.281 -78.419,3.379 -16.31,0.686 -32.625,1.253 -48.936,1.924 -15.864,0.652 -31.725,1.37 -47.587,2.057 q -18.432,0.8 -36.864,1.59 -29.827,1.247 -59.657,2.442 c -1.292,0.052 -2.594,-0.147 -4.286,-0.255 l -0.962,-6.31 a 28.8,28.8 0 0 1 4.077,-0.8 c 25.025,-1.007 50.054,-1.938 75.078,-2.956 15.641,-0.637 31.276,-1.405 46.914,-2.091 q 17.091,-0.749 34.184,-1.433 c 17.206,-0.672 34.416,-1.25 51.619,-1.969 q 18.048,-0.753 36.083,-2.045 c -10.274,0 -20.55,-0.137 -30.821,0.029 -20.349,0.33 -40.694,0.83 -61.04,1.256 q -65.065,1.361 -130.131,2.727 c -8.719,0.187 -17.437,0.492 -26.154,0.774 -1.3,0.042 -2.589,0.259 -4.361,0.445 0.438,3.4 0.847,6.454 1.222,9.512 1.344,10.933 1.537,21.844 -0.585,32.718 a 54.651,54.651 0 0 1 -11.239,24.777 c -5.545,6.741 -12.376,11.67 -20.951,13.706 a 41.58,41.58 0 0 1 -20.554,-0.038 c -14.5,-3.922 -23.867,-15.953 -24.939,-31.406 -0.689,-9.921 1.938,-19.063 6.861,-27.569 7.458,-12.886 18.573,-21.633 32.109,-27.326 5.329,-2.241 11.005,-3.655 16.512,-5.476 1.228,-0.405 2.413,-0.939 4.105,-1.6 a 51.648,51.648 0 0 0 -14.055,-16.4 c -10.04,-7.734 -21.524,-10.556 -34.055,-9.364 -12.515,1.189 -23.865,5.676 -34.284,12.536 q -33.5,22.054 -45.258,60.458 c -0.843,2.768 -1.6,5.563 -2.653,9.257 -0.8,-2.549 -1.412,-4.3 -1.914,-6.089 -8.194,-29.133 -25.1,-51.562 -51.4,-66.739 a 72.175,72.175 0 0 0 -28.445,-9.376 c -20.736,-2.284 -38.1,7.671 -47.867,24.407 a 6.353,6.353 0 0 0 -0.318,1.644 c 1.627,0.5 3.283,1.06 4.97,1.5 11.8,3.092 22.828,7.773 32.442,15.445 a 58.157,58.157 0 0 1 17.566,22.515 c 3.908,9.039 5.482,18.46 3.156,28.169 -3.256,13.59 -11.59,22.943 -25.311,25.747 -14.054,2.873 -27.1,-0.08 -37.565,-10.9 a 52.212,52.212 0 0 1 -13.218,-24.5 81.1,81.1 0 0 1 -2.136,-26.625 c 0.447,-4.893 1.081,-9.769 1.591,-14.657 0.136,-1.3 0.127,-2.621 0.183,-3.9 -2.476,-1.375 -5,-0.883 -7.4,-0.941 q -33.872,-0.821 -67.747,-1.514 -66.742,-1.379 -133.486,-2.706 c -12.072,-0.244 -24.144,-0.5 -36.217,-0.7 a 60.132,60.132 0 0 0 -7.077,0.4 c 82.391,3.806 164.8,7 247.012,10.541 1.112,2.795 0.2,4.795 -0.677,6.973 -1.253,0.066 -2.356,0.216 -3.451,0.168 -23.681,-1.023 -47.361,-2.1 -71.043,-3.1 -15.193,-0.643 -30.392,-1.155 -45.585,-1.78 -16.758,-0.69 -33.512,-1.45 -50.268,-2.166 q -17.763,-0.759 -35.526,-1.48 c -27.261,-1.078 -54.525,-2.087 -81.784,-3.212 -26.141,-1.079 -52.277,-2.289 -78.416,-3.4 -14.746,-0.629 -29.5,-1.16 -44.243,-1.769 -17.651,-0.729 -35.3,-1.51 -52.951,-2.241 -14.747,-0.612 -29.5,-1.166 -44.242,-1.78 q -26.141,-1.087 -52.279,-2.233 -18.1,-0.768 -36.2,-1.5 c -18.323,-0.718 -36.663,-1.131 -54.966,-2.194 -12.514,-0.726 -25.022,-0.6 -37.532,-0.915 a 25.464,25.464 0 0 1 -7.352,-1 c 2.959,-0.073 5.918,-0.228 8.876,-0.206 17,0.129 33.993,0.434 50.989,0.437 q 274.755,0.049 549.509,0.054 c 24.6,0.009 49.2,0.425 73.793,0.765 7.139,0.1 14.274,0.587 21.793,0.914 1.177,-1.777 2.41,-3.594 3.6,-5.44 a 72.8,72.8 0 0 1 17.46,-19.3 c 17.364,-13 36.619,-15.8 57.224,-10.065 17.606,4.905 31.692,15.258 43.161,29.266 11.447,13.979 18.265,30.088 21.409,47.815 0.43,2.421 0.862,4.842 1.344,7.253 a 4.362,4.362 0 0 0 0.677,1.161 c 1.13,-5.686 1.948,-11.41 3.426,-16.959 6.445,-24.208 19.266,-44.117 40.314,-58.2 12.548,-8.4 26.343,-13.044 41.593,-13.065 16.7,-0.022 30.971,5.9 43.09,17.243 a 75.536,75.536 0 0 1 11.958,14.427 c 1.2,1.87 2.45,3.71 3.657,5.533 a 8.659,8.659 0 0 0 2.068,0.4 c 23,-1.6 46.024,-1.885 69.061,-1.879 q 215.04,0.049 430.079,0.1 82.192,0.011 164.383,-0.094 c 10.287,-0.012 20.574,-0.247 30.86,-0.364 2.668,-0.03 5.336,0 8,0 -0.01,0.348 -0.02,0.712 -0.034,1.076 z m -714.622,16.556 a 76.115,76.115 0 0 0 -24.9,8.4 c -14.575,8.063 -23.258,20.538 -27.043,36.577 a 29.9,29.9 0 0 0 0.043,14.612 c 2.369,9.028 8.752,13.984 18.01,14.026 8.312,0.038 15.186,-3.385 20.938,-9.123 a 50.733,50.733 0 0 0 13.9,-24.833 c 2.306,-9.942 1.96,-19.981 0.752,-30.014 -0.362,-3.054 -1.057,-6.068 -1.7,-9.645 z m -267.67,0.546 a 6.512,6.512 0 0 0 -0.864,1.65 99.765,99.765 0 0 0 -1.474,31.97 50.562,50.562 0 0 0 15.183,30.585 c 5.783,5.714 12.77,8.937 21.025,8.828 8.872,-0.116 15.131,-5.215 17.5,-13.784 1.739,-6.29 0.874,-12.422 -0.851,-18.482 -6.327,-22.233 -26.457,-38.466 -50.519,-40.767 z"
         id="path537" />
      <path
         d="m 893.994,83.923 a 16.46,16.46 0 0 1 9.087,-0.833 44.707,44.707 0 0 1 28.309,15.195 c 1.588,1.8 3.121,3.654 5.154,6.04 1.053,-3.232 0.166,-5.824 0.236,-8.349 0.075,-2.682 -0.052,-5.37 0.047,-8.05 0.099,-2.68 0.358,-5.355 0.566,-8.031 0.225,-2.9 0.4,-5.8 0.73,-8.689 0.306,-2.664 0.733,-5.318 1.216,-7.956 0.483,-2.638 1.047,-5.262 1.678,-7.868 0.631,-2.606 1.3,-5.207 2.115,-7.76 0.8,-2.507 1.261,-5.192 3.434,-7.914 8.208,20.888 9.584,42.1 8.831,63.773 2.415,-0.007 3.012,-1.976 4.028,-3.231 a 46.564,46.564 0 0 1 19.075,-14.37 40.059,40.059 0 0 1 15.7,-3.022 31.546,31.546 0 0 1 3.871,0.636 17.272,17.272 0 0 1 -1.935,2.361 c -3.514,2.766 -7.144,5.388 -10.6,8.219 a 113.588,113.588 0 0 0 -26.685,30.742 c -3.039,5.214 -6.037,10.454 -9.088,15.662 -0.993,1.695 -2.1,3.326 -3.38,5.35 -1.038,-1.448 -1.891,-2.46 -2.548,-3.586 -2.481,-4.247 -4.959,-8.5 -7.328,-12.807 a 122.491,122.491 0 0 0 -34.7,-39.518 c -2.313,-1.717 -4.569,-3.499 -7.813,-5.994 z"
         id="path539" />
    </g>
  </g>
  <g
     id="icons"
     transform="translate(-0.9414555,-17.861336)">
    <path
       d="m 943.754,141.787 a 11.061,11.061 0 0 0 1,3.309 c 0.487,0.752 1.752,1.261 2.67,1.878 l 1.668,23.541 -1.706,0.123 c -0.423,-2 -0.911,-4 -1.258,-6 -1.142,-6.6 -2.292,-13.21 -3.278,-19.826 -0.143,-0.978 0.582,-2.012 0.904,-3.025 z"
       fill="#dbd7ec"
       id="path544" />
    <path
       class="cls-5"
       d="m 874.914,117.95 a 63.341,63.341 0 0 1 7.417,2.658 c 5.319,2.645 10.692,5.347 15.1,9.655 2,1.952 3.218,2 5.374,0.44 6.141,-4.454 13.131,-6.636 20.2,-8.39 4.863,-1.208 9.794,-2.081 14.7,-3.063 0.358,-0.072 0.769,0.18 1.155,0.281 l 3.983,3.865 c -2.179,2.61 -4.226,5.078 -6.29,7.529 -1.2,1.431 -1.121,2.406 0.406,3.386 a 6.017,6.017 0 0 0 1.481,0.51 c 3.65,1.155 7.3,2.307 11.137,3.519 -0.572,1.016 -0.93,1.531 -1.175,2.107 -1.089,2.557 -2.145,5.132 -3.213,7.7 a 6.765,6.765 0 0 0 -0.338,1.82 c 0.369,3.984 0.8,7.962 1.228,11.939 0.13,1.209 0.313,2.411 0.472,3.616 l 0.639,-0.074 -0.625,-14.178 a 13.738,13.738 0 0 1 0.593,-2.4 c 1.351,-3.024 2.8,-5.994 4.171,-9.007 0.944,-2.074 0.772,-2.4 -0.964,-3.53 -2.843,-1.852 -5.633,-3.806 -8.533,-5.776 2.461,-2.893 5.011,-5.834 7.491,-8.846 a 17.228,17.228 0 0 0 1.467,-2.566 27.022,27.022 0 0 1 4.27,0.041 c 9.916,1.619 19.754,3.688 29.094,7.89 a 57.084,57.084 0 0 1 7.853,4.714 1.476,1.476 0 0 0 2.159,-0.087 c 8.178,-7.723 17.754,-12.261 27.993,-15.289 a 85.677,85.677 0 0 0 -0.281,9.923 57.42,57.42 0 0 0 6.249,21.738 c 1.824,3.531 3.965,6.859 5.963,10.278 -0.848,0.6 -1.672,1.246 -2.55,1.784 -1.171,0.716 -1.605,1.279 -0.61,2.823 5.857,9.1 10.738,18.78 13.11,29.779 a 64.533,64.533 0 0 1 -0.249,28.381 34.415,34.415 0 0 1 -6.8,13.477 c -3.864,4.935 -8.649,8.418 -13.45,11.985 -6.648,4.941 -13.131,10.16 -19.795,15.071 A 95.4,95.4 0 0 0 981.392,285.6 c -4.63,6.87 -7.251,14.651 -9.064,22.839 a 65.252,65.252 0 0 1 -11.323,25.244 9.838,9.838 0 0 1 -2.84,2.552 2.28,2.28 0 0 1 -2.142,-0.239 c -3.2,-2.4 -4.791,-6.165 -6.206,-9.949 -1.245,-3.332 -2.162,-6.817 -3.268,-10.373 -0.815,2.787 -1.415,5.61 -2.457,8.212 a 99.9,99.9 0 0 1 -4.656,9.806 7.459,7.459 0 0 1 -2.718,2.674 2.164,2.164 0 0 1 -2.161,-0.453 53.247,53.247 0 0 1 -5.239,-6.46 c -4.467,-6.825 -7.133,-14.553 -8.871,-22.745 a 64.619,64.619 0 0 0 -11.229,-24.876 101.332,101.332 0 0 0 -24.357,-23.538 c -5.429,-3.794 -10.549,-8.137 -15.822,-12.212 -2.392,-1.849 -4.944,-3.469 -7.2,-5.5 -7.692,-6.909 -12.762,-15.484 -13.69,-26.8 -0.726,-8.859 -0.416,-17.557 2.213,-26 a 101.251,101.251 0 0 1 11.572,-24.414 c 1.38,-2.163 1.361,-2.253 -0.821,-3.5 l -0.625,-0.357 a 5.041,5.041 0 0 0 0.791,-0.752 90.655,90.655 0 0 0 11.249,-21.759 51.277,51.277 0 0 0 2.386,-19.05 z M 914,207.4 l -0.346,-0.464 c -0.455,0.143 -0.9,0.313 -1.365,0.423 -1.837,0.438 -3.845,1.57 -5.443,-0.167 a 20.864,20.864 0 0 1 -3.052,-4.943 c -0.92,-1.877 -1.493,-3.964 -2.38,-5.865 -2.16,-4.634 -7.239,-7.4 -11.3,-6.118 -3.407,1.078 -8,6.8 -6.622,13.123 0.713,3.279 1.632,6.527 2.054,9.852 a 33.719,33.719 0 0 1 0.084,8.644 c -0.325,2.415 -2.536,3.278 -4.464,3.376 -1.543,0.079 -3.4,-0.305 -4.116,-2.318 -2.706,-7.646 -4.416,-15.462 -3.242,-23.793 1.641,-11.634 10.259,-18.691 20.116,-18.366 7.553,0.25 13.166,4.983 17.174,11.867 1.68,2.886 2.648,6.29 3.864,9.273 a 3.4,3.4 0 0 0 0.3,-1.043 c 0.266,-5.352 1.371,-10.587 0.853,-16.072 -0.608,-6.422 -1.084,-12.867 -3.253,-18.853 -2.846,-7.854 -8.414,-11.7 -15.937,-10.222 -6.211,1.217 -10.828,5.578 -15.077,10.406 a 55.283,55.283 0 0 0 -8.192,13.059 79.172,79.172 0 0 0 -6.531,18.873 66.2,66.2 0 0 0 -0.987,19.144 18.573,18.573 0 0 0 5.965,12.363 c 3.464,3.149 7.668,3.241 11.754,3.584 a 17.036,17.036 0 0 0 13.1,-4.341 c 2.333,-2.047 4.98,-3.732 7.028,-6.079 a 80.81,80.81 0 0 0 6.336,-9.051 c 1.329,-2.018 2.464,-4.192 3.679,-6.292 z m 64.018,-5.153 0.541,0.016 a 26.938,26.938 0 0 1 4.864,-11.724 c 5.074,-6.742 11.125,-10.7 19.339,-9.487 9.692,1.43 16.421,10.232 16.941,20.85 a 56.322,56.322 0 0 1 -2.646,18.565 c -0.412,1.422 -1.094,3.127 -2.13,3.874 -3.6,2.592 -8.033,-0.2 -7.836,-4.955 a 100.877,100.877 0 0 1 1.365,-10.356 c 0.429,-2.936 1.326,-5.866 1.3,-8.789 -0.061,-6.016 -6.127,-13.166 -13.207,-9.059 -3.772,2.188 -5.212,6.067 -6.852,9.979 a 46.612,46.612 0 0 1 -3.317,5.874 2.214,2.214 0 0 1 -2.8,0.952 c -1.355,-0.378 -2.736,-0.641 -4.256,-0.988 a 4.874,4.874 0 0 0 0.235,0.944 c 3.422,6.206 6.835,12.476 12,17.088 a 49.309,49.309 0 0 0 9.233,6.6 c 4.477,2.421 9.3,1.587 14.075,0.854 6.532,-1 10.833,-6.982 11.758,-13.393 a 81.527,81.527 0 0 0 0.413,-11.786 c -0.02,-8.443 -2.359,-16.272 -5.6,-23.754 -2.51,-5.793 -5.223,-11.453 -9.245,-16.261 -4.042,-4.831 -8.347,-9.091 -14.132,-11.012 -8.45,-2.8 -15.186,1.72 -17.994,10.255 a 72.723,72.723 0 0 0 -3.165,21.423 c -0.089,4.751 0.714,9.526 1.118,14.291 z"
       id="path546" />
    <path
       class="cls-5"
       d="m 843.759,115.424 a 61.817,61.817 0 0 1 7.032,-1.268 52.705,52.705 0 0 1 22.545,3.357 c 0.049,0.019 0.081,0.108 0.12,0.164 -0.326,4.836 -0.342,9.742 -1.042,14.495 -1.451,9.842 -5.346,18.435 -9.763,26.692 -1.144,2.14 -2.207,4.347 -3.307,6.523 -5.906,-2.333 -11.734,-5.2 -18.152,-4.043 0.149,-0.632 0.3,-1.265 0.446,-1.9 1.325,-5.557 3.014,-11.032 3.86,-16.7 0.679,-4.553 0.278,-9.34 0.464,-14.016 a 36.241,36.241 0 0 0 -2.203,-13.304 z"
       id="path548" />
    <path
       class="cls-5"
       d="m 838.691,161.383 c -0.406,0.286 -0.788,0.731 -1.223,0.833 a 25.6,25.6 0 0 0 -12.366,6.6 c -0.127,0.124 -0.342,0.109 -0.517,0.159 -2.029,-5.424 -3.792,-11.031 -6.158,-16.221 a 58.766,58.766 0 0 0 -10.167,-15.934 58.689,58.689 0 0 1 23.481,-18.148 101.4,101.4 0 0 1 10.222,-3.22 2.606,2.606 0 0 0 0.024,0.665 c 2.3,7.524 2.577,15.269 1.791,23.167 a 85.867,85.867 0 0 1 -5.087,22.099 z M 792.325,187.7 a 49.05,49.05 0 0 1 -0.653,-6.5 c 0.13,-4.793 0.312,-9.614 0.867,-14.353 0.87,-7.436 3.8,-13.813 7.532,-19.633 1.895,-2.958 3.95,-5.762 5.957,-8.609 0.171,-0.242 0.53,-0.284 0.8,-0.419 1.141,1.5 2.376,2.905 3.405,4.511 a 103.016,103.016 0 0 1 11.689,25.019 21.1,21.1 0 0 0 1.205,2.615 c -0.993,1.534 -1.927,3.132 -2.989,4.589 -2.57,3.53 -3.311,7.9 -3.9,12.363 -0.254,1.923 -0.5,3.85 -0.744,5.775 -2.293,-1.041 -4.573,-2.13 -6.882,-3.115 -5.289,-2.254 -10.782,-2.336 -16.287,-2.243 z m 23.182,8.023 c 0.193,10.63 1.718,20.926 5.865,30.337 2.314,5.251 5.182,10.129 7.752,15.212 a 10.574,10.574 0 0 1 0.549,2.325 5.56,5.56 0 0 1 -2.106,0.368 c -5.646,-1.3 -10.1,-5.3 -14.326,-9.786 a 83.54,83.54 0 0 1 -14.812,-21.89 67.381,67.381 0 0 1 -6.08,-22.372 37.711,37.711 0 0 1 17.583,3.454 c 1.844,0.834 3.716,1.571 5.575,2.352 z"
       id="path550" />
    <path
       d="m 950.792,119.143 a 17.228,17.228 0 0 1 -1.467,2.566 c -2.48,3.012 -5.03,5.953 -7.491,8.846 2.9,1.97 5.69,3.924 8.533,5.776 1.736,1.131 1.908,1.456 0.964,3.53 -1.372,3.013 -2.82,5.983 -4.171,9.007 a 13.727,13.727 0 0 0 -0.593,2.4 c -0.344,-0.372 -0.818,-0.679 -1,-1.131 a 9.914,9.914 0 0 1 -0.375,-1.993 c 1.068,-2.568 2.124,-5.143 3.213,-7.7 0.245,-0.576 0.6,-1.091 1.175,-2.107 -3.836,-1.212 -7.487,-2.364 -11.137,-3.519 a 6.017,6.017 0 0 1 -1.481,-0.51 c -1.527,-0.98 -1.611,-1.955 -0.406,-3.386 2.064,-2.451 4.111,-4.919 6.29,-7.529 l -3.983,-3.865 a 26.4,26.4 0 0 1 11.929,-0.385 z"
       fill="#d2cde3"
       id="path552" />
    <path
       class="cls-7"
       d="m 859.344,165.387 c 1.1,-2.176 2.163,-4.383 3.307,-6.523 4.417,-8.257 8.312,-16.85 9.763,-26.692 0.7,-4.753 0.716,-9.659 1.042,-14.495 l 1.824,0.874 a 64.031,64.031 0 0 1 -2.458,21.679 107.357,107.357 0 0 1 -11.6,24.748 5.36,5.36 0 0 1 -0.814,0.856 z"
       id="path554" />
    <path
       class="cls-8"
       d="m 838.691,161.383 a 85.867,85.867 0 0 0 5.087,-22.1 c 0.786,-7.9 0.506,-15.643 -1.791,-23.167 a 2.606,2.606 0 0 1 -0.024,-0.665 l 1.8,-0.028 a 36.241,36.241 0 0 1 2.2,13.31 c -0.186,4.676 0.215,9.463 -0.464,14.016 -0.846,5.665 -2.535,11.14 -3.86,16.7 -0.15,0.632 -0.3,1.265 -0.446,1.9 z"
       id="path556" />
    <path
       class="cls-9"
       d="m 823.128,170.332 a 21.1,21.1 0 0 1 -1.205,-2.615 103.016,103.016 0 0 0 -11.689,-25.017 c -1.029,-1.606 -2.264,-3.012 -3.405,-4.511 l 1.431,-1.367 a 58.766,58.766 0 0 1 10.167,15.939 c 2.366,5.19 4.129,10.8 6.158,16.221 z"
       id="path558" />
    <path
       class="cls-8"
       d="m 815.507,195.723 c -1.859,-0.781 -3.731,-1.518 -5.575,-2.352 a 37.711,37.711 0 0 0 -17.583,-3.454 l -0.024,-2.216 c 5.5,-0.094 11,-0.012 16.286,2.243 2.309,0.985 4.589,2.074 6.882,3.115 z"
       id="path560" />
    <path
       class="cls-5"
       d="m 1048.761,114.889 a 62.038,62.038 0 0 0 -7.032,-1.268 52.706,52.706 0 0 0 -22.545,3.358 c -0.049,0.018 -0.081,0.107 -0.12,0.163 0.326,4.837 0.342,9.743 1.042,14.5 1.451,9.841 5.346,18.434 9.763,26.692 1.144,2.14 2.207,4.346 3.307,6.522 5.906,-2.333 11.734,-5.2 18.152,-4.043 -0.149,-0.632 -0.3,-1.265 -0.446,-1.9 -1.325,-5.558 -3.014,-11.032 -3.86,-16.7 -0.679,-4.552 -0.278,-9.339 -0.464,-14.016 a 36.248,36.248 0 0 1 2.203,-13.308 z"
       id="path562" />
    <path
       class="cls-5"
       d="m 1053.829,160.849 c 0.406,0.285 0.788,0.731 1.223,0.832 a 25.6,25.6 0 0 1 12.366,6.606 c 0.127,0.123 0.342,0.108 0.517,0.158 2.029,-5.423 3.792,-11.031 6.158,-16.221 a 58.766,58.766 0 0 1 10.167,-15.939 58.679,58.679 0 0 0 -23.481,-18.147 101.408,101.408 0 0 0 -10.222,-3.221 2.6,2.6 0 0 1 -0.024,0.665 c -2.3,7.524 -2.578,15.27 -1.791,23.167 a 85.884,85.884 0 0 0 5.087,22.1 z m 46.371,26.318 a 49.065,49.065 0 0 0 0.653,-6.5 c -0.13,-4.793 -0.312,-9.613 -0.867,-14.352 -0.87,-7.436 -3.8,-13.814 -7.532,-19.634 -1.895,-2.958 -3.95,-5.762 -5.957,-8.609 -0.171,-0.242 -0.53,-0.283 -0.8,-0.418 -1.141,1.5 -2.376,2.9 -3.4,4.511 a 103.009,103.009 0 0 0 -11.689,25.018 21.037,21.037 0 0 1 -1.2,2.615 c 0.993,1.534 1.927,3.132 2.989,4.59 2.57,3.529 3.311,7.9 3.9,12.362 0.254,1.924 0.5,3.85 0.744,5.775 2.293,-1.041 4.573,-2.129 6.882,-3.114 5.277,-2.256 10.767,-2.338 16.277,-2.244 z m -23.187,8.021 c -0.193,10.631 -1.718,20.926 -5.865,30.338 -2.314,5.25 -5.182,10.128 -7.752,15.211 a 10.569,10.569 0 0 0 -0.549,2.326 5.578,5.578 0 0 0 2.106,0.367 c 5.646,-1.3 10.1,-5.3 14.326,-9.785 a 83.54,83.54 0 0 0 14.812,-21.89 67.386,67.386 0 0 0 6.08,-22.373 37.724,37.724 0 0 0 -17.583,3.455 c -1.844,0.833 -3.716,1.57 -5.575,2.351 z"
       id="path564" />
    <path
       class="cls-7"
       d="m 1033.176,164.852 c -1.1,-2.176 -2.163,-4.382 -3.307,-6.522 -4.417,-8.258 -8.312,-16.851 -9.763,-26.692 -0.7,-4.753 -0.716,-9.659 -1.042,-14.5 l -1.825,0.875 a 64.05,64.05 0 0 0 2.461,21.687 107.357,107.357 0 0 0 11.6,24.748 5.318,5.318 0 0 0 0.814,0.856 z"
       id="path566" />
    <path
       class="cls-8"
       d="m 1053.829,160.849 a 85.884,85.884 0 0 1 -5.087,-22.1 c -0.787,-7.9 -0.506,-15.643 1.791,-23.167 a 2.6,2.6 0 0 0 0.024,-0.665 l -1.8,-0.028 a 36.248,36.248 0 0 0 -2.2,13.31 c 0.186,4.677 -0.215,9.464 0.464,14.016 0.846,5.666 2.535,11.14 3.86,16.7 0.15,0.631 0.3,1.264 0.446,1.9 z"
       id="path568" />
    <path
       class="cls-9"
       d="m 1069.392,169.8 a 21.037,21.037 0 0 0 1.2,-2.615 103.009,103.009 0 0 1 11.689,-25.018 c 1.029,-1.607 2.264,-3.013 3.4,-4.511 l -1.431,-1.367 a 58.746,58.746 0 0 0 -10.167,15.938 c -2.366,5.19 -4.129,10.8 -6.158,16.221 z"
       id="path570" />
    <path
       class="cls-8"
       d="m 1077.013,195.188 c 1.859,-0.781 3.731,-1.518 5.575,-2.351 a 37.724,37.724 0 0 1 17.583,-3.455 l 0.024,-2.215 c -5.5,-0.094 -11,-0.012 -16.286,2.243 -2.309,0.985 -4.589,2.073 -6.882,3.114 z"
       id="path572" />
  </g>
  <g
     id="marks">
    <path
       class="cls-5"
       d="M1062.205 39.694a41.462 41.462 0 002.535-3.3c2.3-3.733 5.864-5.755 9.774-7.231 3.151-1.189 6.4-2.177 9.853-1.676 4.213.611 8.03 2.047 10.163 6.046a16.34 16.34 0 011.449 9.739 42.974 42.974 0 01-8.9 21.29c-2.582 3.392-5.5 6.531-8.244 9.8-2.657 3.158-5.176 6.443-7.981 9.463a71.771 71.771 0 01-6.127 5.335c-.1.086-.25.115-.354.2-.918.742-1.861 2.111-2.737 2.068-.926-.046-1.866-1.361-2.663-2.246-4.079-4.532-8.211-9.023-12.125-13.7a73.278 73.278 0 01-5.3-7.682 51.2 51.2 0 01-7.372-16.907c-1.319-6.25-1.7-12.525 2.532-18.106 2.369-3.126 7.942-5.173 11.855-4.3a16.575 16.575 0 0111.3 7.947c.637 1.066 1.453 2.031 2.342 3.26zM1118.858 134.959a63.561 63.561 0 01-11.781-12.132c-2.084-2.746-4.514-5.237-6.508-8.042a30.72 30.72 0 01-5.764-13.065c-.631-4.033-.764-8 1.346-11.645a10.019 10.019 0 013.1-3.365c6.135-3.911 16.4-.951 19.581 4.1 2.375 3.768 2.62 3.593 5.429-.257a12.506 12.506 0 0110.659-5.364 9.1 9.1 0 018.049 5.853 17.84 17.84 0 01.188 10.992c-2.313 8.612-7.106 15.765-13.125 22.134-3.521 3.716-7.364 7.132-11.174 10.791z"
       id="path575" />
  </g>
</svg>
