<?xml version="1.0" encoding="UTF-8" standalone="no"?>
<svg
   width="1920"
   height="400"
   viewBox="0 0 508 105.83333"
   version="1.1"
   id="svg294"
   sodipodi:docname="card3.svg"
   inkscape:version="1.1 (c68e22c387, 2021-05-23)"
   xmlns:inkscape="http://www.inkscape.org/namespaces/inkscape"
   xmlns:sodipodi="http://sodipodi.sourceforge.net/DTD/sodipodi-0.dtd"
   xmlns="http://www.w3.org/2000/svg"
   xmlns:svg="http://www.w3.org/2000/svg">
  <defs
     id="defs298" />
  <sodipodi:namedview
     id="namedview296"
     pagecolor="#ffffff"
     bordercolor="#666666"
     borderopacity="1.0"
     inkscape:pageshadow="2"
     inkscape:pageopacity="0.0"
     inkscape:pagecheckerboard="0"
     inkscape:document-units="mm"
     showgrid="false"
     units="px"
     inkscape:zoom="0.51091954"
     inkscape:cx="1095.0844"
     inkscape:cy="32.294713"
     inkscape:window-width="1680"
     inkscape:window-height="987"
     inkscape:window-x="-8"
     inkscape:window-y="-8"
     inkscape:window-maximized="1"
     inkscape:current-layer="svg294"
     borderlayer="true" />
  <path
     fill="#6d427f"
     d="M -45.800016,-18.109682 H 555.94978 V 123.82143 H -45.800016 Z"
     id="path220"
     style="stroke-width:1.21349" />
  <path
     d="m 0.14498376,23.175002 29.20299424,59.938 h -58.407991 z"
     fill="#d2a76d"
     id="path222" />
  <path
     d="m 0.14498376,30.921002 23.54199424,48.32 H -23.39901 Z"
     fill="#6e4080"
     id="path224" />
  <path
     d="M 35.188978,83.113002 5.9849804,23.175002 H 64.392978 Z"
     fill="#d2a76d"
     id="path226" />
  <path
     d="m 35.188978,75.367002 -23.543,-48.32 h 47.086 z"
     fill="#6e4080"
     id="path228" />
  <path
     d="m 70.233951,23.175002 29.203835,59.938 H 41.029978 Z"
     fill="#d2a76d"
     id="path230" />
  <path
     d="m 70.233951,30.921002 23.542865,48.32 H 46.690978 Z"
     fill="#6e4080"
     id="path232" />
  <path
     d="m 105.27878,83.113002 -29.203862,-59.938 h 58.407862 z"
     fill="#d2a76d"
     id="path234" />
  <path
     d="m 105.27878,75.367002 -23.542895,-48.32 h 47.085895 z"
     fill="#6e4080"
     id="path236" />
  <path
     d="m 140.32278,23.175002 29.204,59.938 h -58.408 z"
     fill="#d2a76d"
     id="path238" />
  <path
     d="m 140.32278,30.921002 23.543,48.32 h -47.086 z"
     fill="#6e4080"
     id="path240" />
  <path
     d="m 175.36778,83.113002 -29.203,-59.938 h 58.408 z"
     fill="#d2a76d"
     id="path242" />
  <path
     d="m 175.36778,75.367002 -23.543,-48.32 h 47.086 z"
     fill="#6e4080"
     id="path244" />
  <path
     d="m 210.41278,23.175002 29.204,59.938 h -58.408 z"
     fill="#d2a76d"
     id="path246" />
  <path
     d="m 210.41278,30.921002 23.543,48.32 h -47.086 z"
     fill="#6e4080"
     id="path248" />
  <path
     d="m 245.45778,83.113002 -29.204,-59.938 h 58.408 z"
     fill="#d2a76d"
     id="path250" />
  <path
     d="m 245.45778,75.367002 -23.543,-48.32 h 47.086 z"
     fill="#6e4080"
     id="path252" />
  <path
     d="m 280.50178,23.175002 29.204,59.938 h -58.408 z"
     fill="#d2a76d"
     id="path254" />
  <path
     d="m 280.50178,30.921002 23.543,48.32 h -47.086 z"
     fill="#6e4080"
     id="path256" />
  <path
     d="m 315.54678,83.113002 -29.204,-59.938 h 58.408 z"
     fill="#d2a76d"
     id="path258" />
  <path
     d="m 315.54678,75.367002 -23.543,-48.32 h 47.086 z"
     fill="#6e4080"
     id="path260" />
  <path
     d="m -34.900016,83.175002 -29.205006,-59.938 h 58.4080092 z"
     fill="#d2a76d"
     id="path262" />
  <path
     d="m -34.900016,75.429002 -23.543006,-48.32 h 47.086012 z"
     fill="#6e4080"
     id="path264" />
  <path
     d="m 351.46778,23.175002 29.204,59.938 h -58.408 z"
     fill="#d2a76d"
     id="path266" />
  <path
     d="m 351.46778,30.921002 23.543,48.32 h -47.086 z"
     fill="#6e4080"
     id="path268" />
  <path
     d="m 386.51278,83.113002 -29.204,-59.938 h 58.408 z"
     fill="#d2a76d"
     id="path270" />
  <path
     d="m 386.51278,75.367002 -23.543,-48.32 h 47.086 z"
     fill="#6e4080"
     id="path272" />
  <path
     d="m 421.55678,23.175002 29.204,59.938 h -58.408 z"
     fill="#d2a76d"
     id="path274" />
  <path
     d="m 421.55678,30.921002 23.543,48.32 h -47.085 z"
     fill="#6e4080"
     id="path276" />
  <path
     d="m 456.60178,83.113002 -29.204,-59.938 h 58.408 z"
     fill="#d2a76d"
     id="path278" />
  <path
     d="m 456.60178,75.367002 -23.543,-48.32 h 47.086 z"
     fill="#6e4080"
     id="path280" />
  <path
     d="m 491.64678,23.175002 29.204,59.938 h -58.408 z"
     fill="#d2a76d"
     id="path282" />
  <path
     d="m 491.64678,30.921002 23.543,48.32 h -47.086 z"
     fill="#6e4080"
     id="path284" />
  <path
     d="m 526.69178,83.113002 -29.204,-59.938 h 58.408 z"
     fill="#d2a76d"
     id="path286" />
  <path
     d="m 526.69178,75.367002 -23.543,-48.32 h 47.086 z"
     fill="#6e4080"
     id="path288" />
  <path
     d="m 561.27878,23.175002 29.204,59.938 h -58.408 z"
     fill="#d2a76d"
     id="path290" />
  <path
     d="m 561.27878,30.921002 23.543,48.32 h -47.087 z"
     fill="#6e4080"
     id="path292" />
</svg>
